# xmcd CD Database Entry
#
# Track frame offsets:
# 150
# 50372
# 112320
# 136895
# 153647
# 199910
#
# Disc length: 3455 seconds
#
# Revision: 1
# Processed by: cddbd v1.4b41PL3 Copyright (c) Steve Scherf et al.
# Submitted via: tcd 2.0b
#
DISCID=560d7d06
DTITLE=Ludwig Van Veethoven - Symphony No.6 in F major, Op.68 "PASTO
DTITLE=RALE"
DYEAR=1900
DGENRE=
TTITLE0=Symphony No.6 in F major "PASTORALE":Allegro ma non troppo
TTITLE1=Andante molto mosso
TTITLE2=Allegro
TTITLE3=Allegro
TTITLE4=Allegretto
TTITLE5=Overture: "LEONORE" No.3 Op.72A
EXTD=Leonard Bernstein\nNewYork Philharmonic
EXTT0=
EXTT1=
EXTT2=
EXTT3=
EXTT4=
EXTT5=
PLAYORDER=
